<?xml version="1.0" encoding="UTF-8" standalone="no"?><!-- Generator: Gravit.io --><svg xmlns="http://www.w3.org/2000/svg" xmlns:xlink="http://www.w3.org/1999/xlink" style="isolation:isolate" viewBox="0 0 502 502" width="502pt" height="502pt"><defs><clipPath id="_clipPath_mYTSj0PgnyBoX5IOGqie3oS9ZoizW5o2"><rect width="502" height="502"/></clipPath></defs><g clip-path="url(#_clipPath_mYTSj0PgnyBoX5IOGqie3oS9ZoizW5o2)"><g><g><g><path d=" M 142.963 115.33 C 139.057 111.425 132.725 111.425 128.82 115.33 C 124.915 119.236 124.915 125.568 128.82 129.473 L 173.883 174.536 C 175.835 176.489 178.395 177.465 180.954 177.465 C 183.513 177.465 186.073 176.489 188.026 174.536 C 191.931 170.63 191.931 164.298 188.026 160.393 L 142.963 115.33 L 142.963 115.33 Z " fill="rgb(0,0,0)"/><path d=" M 226.357 198.724 L 212.889 185.256 C 208.983 181.351 202.651 181.35 198.746 185.256 C 194.841 189.162 194.841 195.494 198.746 199.399 L 212.214 212.867 C 214.166 214.82 216.726 215.796 219.285 215.796 C 221.844 215.796 224.403 214.82 226.357 212.867 C 230.262 208.961 230.262 202.629 226.357 198.724 Z " fill="rgb(0,0,0)"/><path d=" M 271.083 482 L 227.213 482 L 227.213 471 C 227.213 465.477 222.736 461 217.213 461 C 211.69 461 207.213 465.477 207.213 471 L 207.213 482 L 163.343 482 C 157.82 482 153.343 486.477 153.343 492 C 153.343 497.523 157.82 502 163.343 502 L 271.083 502 C 276.606 502 281.083 497.523 281.083 492 C 281.083 486.477 276.606 482 271.083 482 Z " fill="rgb(0,0,0)"/><path d=" M 379.59 77.697 Q 334.616 77.697 48.59 77.697 C 44.546 77.697 40.899 80.134 39.351 83.87 C 37.803 87.606 38.659 91.908 41.518 94.768 L 207.212 260.462 L 207.212 435.415 C 207.212 440.938 211.689 445.415 217.212 445.415 C 222.735 445.415 227.212 440.938 227.212 435.415 L 227.212 260.462 L 327.046 160.628 C 345.667 140 372.077 114.791 385 97.697 C 387.329 94.11 388.151 89.589 387 86 C 385.89 82.192 384.452 79.11 379.59 77.697 Z  M 217.213 242.178 L 72.732 97.697 L 361.694 97.697 L 217.213 242.178 L 217.213 242.178 Z " fill="rgb(0,0,0)"/></g></g></g></g></svg>