<?xml version="1.0" encoding="UTF-8" standalone="no"?><!-- Generator: Gravit.io --><svg xmlns="http://www.w3.org/2000/svg" xmlns:xlink="http://www.w3.org/1999/xlink" style="isolation:isolate" viewBox="0 0 512.001 512.001" width="512.001pt" height="512.001pt"><defs><clipPath id="_clipPath_xCuEY8bhRFE5VHruKULj9xR62BtFBacz"><rect width="512.001" height="512.001"/></clipPath></defs><g clip-path="url(#_clipPath_xCuEY8bhRFE5VHruKULj9xR62BtFBacz)"><g><g><path d=" M 232.33 181.93 C 230.47 180.07 227.89 179 225.26 179 C 222.63 179 220.05 180.069 218.19 181.93 C 216.33 183.791 215.26 186.37 215.26 189 C 215.26 191.63 216.33 194.21 218.19 196.069 C 220.05 197.929 222.63 199 225.26 199 C 227.89 199 230.47 197.93 232.33 196.069 C 234.19 194.21 235.26 191.63 235.26 189 C 235.26 186.37 234.19 183.79 232.33 181.93 Z " fill="rgb(0,0,0)"/></g></g><g><g><path d=" M 362 127 L 10 127 C 4.477 127 0 131.478 0 137 L 0 466.8 C 0 491.724 20.277 512 45.2 512 L 326.8 512 C 351.723 512 372 491.724 372 466.8 L 372 137 C 372 131.478 367.523 127 362 127 C 356.477 127 352 131.478 352 137 L 352 412.8 C 352 426.696 340.695 438 326.8 438 L 45.2 438 C 31.305 438 20 426.695 20 412.8 L 20 199 L 181 199 C 186.523 199 191 194.522 191 189 C 191 183.478 186.523 179 181 179 L 20.274 179 L 20 147 L 359 147 C 358.93 139 361.858 131.667 362 127 Z  M 45.2 458 L 326.8 458 C 336.123 458 344.796 455.161 352 450.305 L 352 466.8 C 352 480.696 340.695 492 326.8 492 L 45.2 492 C 31.305 492 20 480.695 20 466.8 L 20 450.305 C 27.205 455.161 35.877 458 45.2 458 Z " fill="rgb(0,0,0)"/></g></g></g></svg>