<?xml version="1.0" encoding="UTF-8" standalone="no"?><!-- Generator: Gravit.io --><svg xmlns="http://www.w3.org/2000/svg" xmlns:xlink="http://www.w3.org/1999/xlink" style="isolation:isolate" viewBox="0 0 475.669 671.949" width="475.669pt" height="671.949pt"><defs><clipPath id="_clipPath_Q0ONlKZ32hvDuQTsMC1atOgBgMYwnLe7"><rect width="475.669" height="671.949"/></clipPath></defs><g clip-path="url(#_clipPath_Q0ONlKZ32hvDuQTsMC1atOgBgMYwnLe7)"><g><g><path d=" M 186.11 644.718 C 183.467 649.477 178.1 653.577 172.562 651.335 L 24.261 591.286 C 23.568 591.005 22.947 590.656 22.392 590.249 C 18.509 587.396 17.897 581.707 19.134 577.106 L 22.131 565.952 L 49.689 577.111 C 54.808 579.184 60.638 576.714 62.711 571.595 C 64.784 566.476 62.313 560.645 57.195 558.573 L 27.36 546.492 L 98.309 313.349 L 312.119 399.923 L 186.11 644.718 L 186.11 644.718 L 186.11 644.718 Z  M 322.532 382.562 L 103.539 293.889 L 136.245 184.971 L 374.821 281.574 L 322.532 382.562 L 322.532 382.562 L 322.532 382.562 Z  M 399.327 277.72 C 399.339 277.683 399.355 277.649 399.366 277.614 C 399.48 277.238 399.568 276.856 399.637 276.472 C 399.659 276.357 399.669 276.24 399.686 276.124 C 399.726 275.849 399.757 275.572 399.774 275.295 C 399.782 275.155 399.784 275.014 399.787 274.874 C 399.792 274.609 399.786 274.343 399.77 274.078 C 399.764 273.994 399.771 273.911 399.764 273.827 L 387.901 269.024 Q 440.594 168.69 472.121 108.713 C 475.776 102.242 477.476 97.315 472.919 89.71 C 434.732 56.528 412.179 37.345 375.07 4.684 C 367.267 -0.792 361.002 -1.333 353.353 2.364 Q 333.3 19.04 144.949 170.649 L 123.719 162.053 C 123.657 162.108 123.605 162.17 123.543 162.226 C 123.346 162.408 123.155 162.595 122.971 162.791 C 122.878 162.892 122.781 162.994 122.692 163.099 C 122.508 163.311 122.338 163.534 122.174 163.762 C 122.107 163.855 122.034 163.944 121.971 164.04 C 121.753 164.365 121.55 164.7 121.37 165.051 C 121.354 165.084 121.342 165.119 121.325 165.152 C 121.168 165.468 121.027 165.793 120.902 166.127 C 120.858 166.247 120.823 166.368 120.783 166.49 C 120.726 166.665 120.661 166.836 120.613 167.013 Q 20.492 502.756 1.246 576.166 C -2.667 595.05 3.012 601.723 13.04 608.322 Q 23.589 612.97 165.055 669.874 C 179.23 675.614 195.438 669.117 203.595 654.429 L 398.545 279.55 C 398.635 279.388 398.706 279.219 398.787 279.054 C 398.843 278.94 398.902 278.828 398.954 278.712 C 399.096 278.387 399.221 278.055 399.327 277.72 L 399.327 277.72 L 399.327 277.72 Z  M 363.879 16.336 L 460.094 98.449 L 371.111 262.225 L 165.35 178.91 L 363.879 16.336 Z " fill-rule="evenodd" fill="rgb(0,0,0)"/></g></g><g><g><path d=" M 188.581 604.062 L 188.345 604.062 C 182.822 604.062 178.345 608.539 178.345 614.062 C 178.345 619.585 182.822 624.062 188.345 624.062 L 188.581 624.062 C 194.103 624.062 198.581 619.585 198.581 614.062 C 198.581 608.539 194.103 604.062 188.581 604.062 Z " fill="rgb(0,0,0)"/></g></g><path d=" M 133.01 56.073 C 130.947 49.889 124.262 46.547 118.076 48.61 C 69.194 64.916 30.277 103.835 13.971 152.717 C 11.908 158.902 15.249 165.588 21.433 167.651 C 27.626 169.717 34.307 166.365 36.367 160.188 C 50.336 118.314 83.675 84.974 125.549 71.006 C 131.732 68.942 135.073 62.257 133.01 56.073 Z " fill="rgb(0,0,0)"/><path d=" M 152.443 111.889 C 150.555 106.23 144.44 103.171 138.776 105.057 C 106.866 115.693 81.464 141.095 70.828 173.005 C 68.941 178.665 72 184.784 77.661 186.671 C 83.322 188.558 89.44 185.499 91.327 179.838 C 99.825 154.345 120.118 134.053 145.61 125.555 C 151.27 123.668 154.329 117.55 152.443 111.889 Z " fill="rgb(0,0,0)"/><path d=" M 465.996 406.479 C 459.807 404.415 453.121 407.757 451.057 413.944 C 437.083 455.832 403.734 489.182 361.845 503.154 C 355.659 505.217 352.317 511.906 354.381 518.093 C 356.441 524.269 363.122 527.625 369.319 525.558 C 418.217 509.247 457.149 470.316 473.46 421.417 C 475.524 415.231 472.181 408.543 465.996 406.479 Z " fill="rgb(0,0,0)"/><path d=" M 410.113 387.457 C 404.455 385.571 398.338 388.629 396.451 394.288 C 387.957 419.771 367.671 440.056 342.188 448.551 C 336.529 450.437 333.471 456.553 335.357 462.212 C 337.243 467.871 343.359 470.929 349.018 469.043 C 380.917 458.41 406.309 433.018 416.942 401.119 C 418.83 395.459 415.771 389.343 410.113 387.457 Z " fill="rgb(0,0,0)"/></g></svg>