<?xml version="1.0" encoding="UTF-8" standalone="no"?><!-- Generator: Gravit.io --><svg xmlns="http://www.w3.org/2000/svg" xmlns:xlink="http://www.w3.org/1999/xlink" style="isolation:isolate" viewBox="0 0 512 512" width="512pt" height="512pt"><defs><clipPath id="_clipPath_m35Moc2wBluEO54hY6RS7i4GOubJ2vZV"><rect width="512" height="512"/></clipPath></defs><g clip-path="url(#_clipPath_m35Moc2wBluEO54hY6RS7i4GOubJ2vZV)"><g><g><path d=" M 374.014 269.963 C 368.493 269.963 364.015 274.439 364.015 279.962 L 364.015 280.093 C 364.015 285.615 368.492 290.092 374.014 290.092 C 379.536 290.092 384.013 285.616 384.013 280.093 L 384.013 279.962 C 384.013 274.44 379.535 269.963 374.014 269.963 Z " fill="rgb(0,0,0)"/></g></g><g><g><path d=" M 371.236 304.162 C 366.103 302.129 360.292 304.645 358.259 309.78 C 355.673 316.317 352.261 322.468 348.117 328.066 C 339.157 340.169 326.957 349.543 312.839 355.172 C 307.709 357.217 305.209 363.033 307.254 368.164 C 308.816 372.08 312.572 374.462 316.545 374.462 C 317.777 374.462 319.031 374.233 320.245 373.749 C 337.821 366.742 353.016 355.059 364.19 339.965 C 369.368 332.971 373.628 325.292 376.854 317.139 C 378.887 312.003 376.372 306.194 371.236 304.162 Z " fill="rgb(0,0,0)"/></g></g><g><g><path d=" M 396.337 363.761 C 422.459 328.474 430.696 282.251 418.371 240.113 L 374.546 90.268 C 373.299 86.005 369.391 83.076 364.949 83.076 Q 238.75 83.5 182.102 83.076 C 176.867 83.037 172.893 85.985 171.641 90.268 Q 160.25 129.25 130.962 229.734 C 130.959 229.744 130.956 229.754 130.953 229.764 L 127.926 240.114 C 115.601 282.252 123.838 328.476 149.96 363.763 C 176.283 399.322 218.301 420.64 262.513 420.938 C 257.575 460.931 223.41 492.002 182.102 492.002 L 171.641 492.002 C 166.12 492.002 161.642 496.478 161.642 502.001 C 161.642 507.523 166.119 512 171.641 512 L 182.102 512 L 364.196 512 L 383.136 512 C 388.657 512 393.135 507.523 393.135 502.001 C 393.135 496.479 388.658 492.002 383.136 492.002 L 364.196 492.002 C 322.888 492.002 288.724 460.932 283.785 420.938 C 327.996 420.639 370.014 399.32 396.337 363.761 Z  M 188.841 103.074 L 357.456 103.074 L 392.449 222.718 L 153.848 222.718 L 188.841 103.074 Z  M 303.914 492 L 242.382 492 C 255.403 482.29 266.019 469.516 273.148 454.76 C 280.278 469.516 290.893 482.289 303.914 492 Z  M 282.849 400.953 L 263.449 400.953 C 225.205 400.953 188.788 382.601 166.032 351.864 C 143.611 321.575 136.539 281.897 147.118 245.727 L 147.999 242.715 L 397.783 242.715 C 397.954 242.715 398.122 242.698 398.291 242.689 L 399.179 245.726 C 409.758 281.896 402.687 321.573 380.265 351.863 C 357.51 382.601 321.092 400.953 282.849 400.953 Z " fill="rgb(0,0,0)"/></g></g></g></svg>