<?xml version="1.0" encoding="UTF-8" standalone="no"?><!-- Generator: Gravit.io --><svg xmlns="http://www.w3.org/2000/svg" xmlns:xlink="http://www.w3.org/1999/xlink" style="isolation:isolate" viewBox="0 0 512 512" width="512pt" height="512pt"><defs><clipPath id="_clipPath_zJRDX8Jhq0M6NMb1DYLLXz0rwkzHLlJb"><rect width="512" height="512"/></clipPath></defs><g clip-path="url(#_clipPath_zJRDX8Jhq0M6NMb1DYLLXz0rwkzHLlJb)"><g><path d=" M 122.307 501.42 C 114.133 501.42 106.016 498.86 99.076 493.82 C 86.789 484.898 80.748 470.058 83.311 455.09 L 105.296 326.702 L 11.996 235.805 C 1.12 225.209 -2.724 209.654 1.964 195.211 C 6.652 180.769 18.9 170.438 33.925 168.251 L 162.824 149.486 L 220.44 32.663 C 227.157 19.045 240.762 10.582 255.947 10.579 L 255.958 10.579 C 271.139 10.579 284.743 19.033 291.465 32.644 L 301.336 52.632 Q 321 95 349.143 149.436 L 478.052 168.132 C 493.079 170.312 505.331 180.635 510.028 195.075 C 514.724 209.515 510.889 225.073 500.018 235.675 L 406.767 326.621 L 428.82 454.997 C 431.391 469.963 425.358 484.806 413.076 493.735 C 400.795 502.665 384.814 503.823 371.37 496.76 L 256.059 436.176 L 140.781 496.821 C 134.936 499.9 128.604 501.42 122.307 501.42 L 122.307 501.42 L 122.307 501.42 Z " fill="rgb(0,0,0)" fill-opacity="0.5"/><path d=" M 122.307 501.42 C 114.133 501.42 106.016 498.86 99.076 493.82 C 86.789 484.898 80.748 470.058 83.311 455.09 L 105.296 326.702 L 11.996 235.805 C 1.12 225.209 -2.724 209.654 1.964 195.211 C 6.652 180.769 18.9 170.438 33.925 168.251 L 162.824 149.486 L 220.44 32.663 C 227.157 19.045 240.762 10.582 255.947 10.579 L 255.958 10.579 C 271.139 10.579 284.743 19.033 291.465 32.644 L 297.336 45.632 C 299.781 50.584 295.75 57.581 290.796 60.026 C 285.846 62.471 277.848 62.44 275.402 57.487 L 270.532 51.5 C 267.155 44.662 263.584 40.579 255.957 40.579 C 255.955 40.579 255.954 40.579 255.951 40.579 C 248.322 40.581 243.751 44.667 240.376 51.51 L 185.435 167.048 C 183.979 170 179.164 174.046 175.907 174.52 L 42.805 192.042 C 35.255 193.141 29.341 197.13 26.986 204.387 C 24.63 211.644 27.486 218.156 32.951 223.48 L 129.016 312.045 C 131.373 314.342 134.45 324.651 133.894 327.896 L 111.022 455.466 C 109.734 462.986 110.651 467.154 116.825 471.636 C 122.999 476.119 126.716 476.675 133.469 473.122 L 248.4 407.029 C 251.313 405.496 260.793 405.496 263.707 407.027 L 376.671 474.056 C 383.426 477.605 389.143 477.045 395.315 472.558 C 401.486 468.072 404.399 462.903 403.108 455.383 L 379.165 324.826 C 378.607 321.582 381.682 312.272 384.039 309.973 L 477.054 225.357 C 482.516 220.03 486.368 213.517 484.008 206.261 C 481.648 199.006 475.732 196.02 468.181 194.925 L 337.069 174.474 C 333.812 174.001 327.996 167.956 326.538 165.005 L 322.266 152.204 C 319.821 147.252 323.852 140.255 328.805 137.81 C 333.757 135.363 342.753 135.397 345.199 140.349 L 349.143 149.436 L 478.052 168.132 C 493.079 170.312 505.331 180.635 510.028 195.075 C 514.724 209.515 510.889 225.073 500.018 235.675 L 406.767 326.621 L 428.82 454.997 C 431.391 469.963 425.358 484.806 413.076 493.735 C 400.795 502.665 384.814 503.823 371.37 496.76 L 256.059 436.176 L 140.781 496.821 C 134.936 499.9 128.604 501.42 122.307 501.42 L 122.307 501.42 Z " fill="rgb(0,0,0)"/><path d=" M 309.251 111.44 C 306.621 111.44 302.041 109.38 300.181 107.51 C 298.321 105.65 296.251 101.08 296.251 98.44 C 296.251 95.81 298.321 90.24 300.181 88.37 C 302.041 86.51 306.621 84.44 309.251 84.44 C 311.891 84.44 316.461 86.51 318.321 88.37 C 320.181 90.23 323.251 95.81 323.251 98.44 C 323.251 101.08 321.181 105.65 319.321 107.51 C 317.461 109.38 311.881 111.44 309.251 111.44 Z " fill="rgb(0,0,0)"/></g></g></svg>